<?xml version="1.0" standalone="no"?>
<!DOCTYPE svg PUBLIC "-//W3C//DTD SVG 20010904//EN"
 "http://www.w3.org/TR/2001/REC-SVG-20010904/DTD/svg10.dtd">
<svg version="1.0" xmlns="http://www.w3.org/2000/svg"
 width="1000.000000pt" height="1000.000000pt" viewBox="0 0 1000.000000 1000.000000"
 preserveAspectRatio="xMidYMid meet">
<metadata>
Created by potrace 1.14, written by Peter Selinger 2001-2017
</metadata>
<g transform="translate(0.000000,1000.000000) scale(0.100000,-0.100000)"
fill="#000000" stroke="none">
<path d="M4440 9764 c-207 -19 -434 -70 -702 -158 -569 -186 -1029 -468 -1444
-884 -277 -277 -475 -546 -646 -878 -136 -264 -202 -438 -314 -834 l-67 -235
-9 -1445 c-11 -1833 -6 -3883 11 -4070 25 -273 61 -392 172 -557 106 -159 322
-344 484 -415 84 -37 175 -50 360 -50 181 0 265 16 383 74 139 69 320 282 392
461 67 169 84 284 99 707 9 272 19 310 98 379 141 125 516 161 679 66 65 -38
76 -61 82 -173 3 -53 8 -99 12 -102 4 -3 12 -86 19 -185 12 -195 41 -457 51
-465 3 -3 14 -34 24 -70 22 -82 91 -216 155 -301 86 -113 246 -259 337 -306
137 -71 211 -87 409 -88 134 0 185 4 240 19 152 40 273 113 386 234 217 229
301 491 329 1022 12 234 23 312 45 347 23 34 67 59 160 90 71 23 97 26 220 27
123 1 145 -1 179 -20 83 -43 89 -66 111 -434 24 -402 39 -477 134 -663 132
-259 306 -439 516 -532 157 -69 433 -110 599 -87 169 22 324 106 471 256 112
113 176 208 271 403 l74 153 0 2557 c0 2553 -6 3034 -35 3228 -30 198 -131
529 -237 775 -232 542 -599 1017 -1094 1414 -356 286 -789 503 -1284 645 -168
49 -267 67 -440 81 -124 10 -1144 22 -1230 14z m930 -575 c434 -29 631 -74
972 -220 300 -128 517 -248 666 -369 106 -85 487 -463 580 -576 128 -155 259
-386 381 -670 120 -282 153 -405 171 -624 18 -215 29 -1247 36 -3190 6 -1864
2 -2256 -27 -2390 -17 -82 -54 -147 -126 -221 -78 -81 -151 -120 -240 -127
-58 -4 -70 -2 -136 31 -81 40 -166 108 -233 187 -98 115 -111 173 -124 540
-11 349 -34 479 -105 620 -92 182 -303 315 -585 370 -81 16 -321 13 -422 -4
-239 -43 -426 -136 -581 -289 -155 -153 -181 -247 -212 -750 -25 -400 -48
-492 -149 -593 -38 -37 -86 -73 -127 -93 -62 -30 -69 -32 -110 -21 -98 27
-193 91 -244 165 -71 102 -96 238 -120 644 -21 359 -33 413 -130 562 -88 136
-208 235 -361 299 -215 89 -584 112 -839 51 -310 -74 -515 -222 -632 -455 -63
-125 -73 -188 -83 -511 -13 -435 -40 -549 -160 -673 -65 -67 -141 -90 -231
-71 -61 13 -94 33 -185 114 -112 99 -134 172 -156 527 -18 283 -18 4382 0
4798 25 580 63 773 224 1150 226 530 653 1014 1191 1350 407 254 925 423 1382
450 157 9 496 4 715 -11z"/>
<path d="M5612 8804 c-86 -44 -82 -192 7 -239 17 -8 77 -30 133 -49 614 -202
1119 -604 1402 -1116 144 -259 239 -558 266 -830 7 -68 15 -499 20 -1050 5
-516 14 -970 19 -1014 12 -90 25 -110 84 -124 80 -21 159 13 177 75 31 113 38
1467 10 1933 -41 672 -281 1231 -725 1689 -306 316 -666 543 -1090 687 -158
53 -251 65 -303 38z"/>
<path d="M3095 6819 c-159 -12 -319 -89 -456 -217 -213 -200 -314 -498 -265
-781 58 -329 285 -574 616 -663 72 -19 109 -23 235 -22 133 1 160 4 240 28
232 70 401 215 505 431 61 126 80 202 87 340 7 156 -18 271 -91 419 -163 329
-476 496 -871 465z m311 -324 c107 -31 204 -108 275 -218 125 -194 113 -466
-28 -637 -183 -222 -474 -286 -717 -157 -121 64 -227 206 -261 348 -32 136
-10 317 52 431 57 105 149 183 268 228 106 40 284 42 411 5z"/>
<path d="M5260 6819 c-301 -31 -613 -306 -695 -614 -9 -33 -19 -112 -22 -175
-18 -367 157 -671 469 -814 92 -43 175 -65 286 -75 255 -23 499 54 668 212
117 109 182 216 231 374 23 78 26 105 27 243 1 165 -8 218 -58 342 -74 183
-227 344 -409 429 -129 60 -341 93 -497 78z m263 -313 c42 -8 100 -26 130 -41
112 -52 242 -229 281 -381 43 -168 -4 -349 -125 -479 -248 -265 -692 -236
-877 57 -84 136 -123 283 -102 391 25 128 74 216 180 325 74 75 123 108 193
127 68 18 226 19 320 1z"/>
</g>
</svg>
